<svg xmlns="http://www.w3.org/2000/svg" width="23.463" height="30.057" viewBox="0 0 23.463 30.057"><defs><style>.a{fill:#fff;}</style></defs><path class="a" d="M132.766,45c3.347,8.988-4.048,9.307-8.125,15.023-2.839,3.98-3.317,12.739,6.914,15.034-4.3-2.263-5.227-8.829-.574-12.941-1.2,3.988,1.006,6.543,3.782,5.605a3.2,3.2,0,0,1,4.442,3.256,3.648,3.648,0,0,1-2.2,3.57s9.339-1.785,9.339-10.9c0-5.546-4.94-6.315-2.454-10.965-2.964.255-3.988,2.192-3.7,5.387a2.528,2.528,0,0,1-3.634,2.582c-1.32-.785-1.275-2.331-.127-3.475C138.875,54.741,139.842,49.175,132.766,45Z" transform="translate(-122.882 -45)"/></svg>