<svg xmlns="http://www.w3.org/2000/svg" width="36.021" height="36.021" viewBox="0 0 36.021 36.021"><defs><style>.a{fill:#fff;stroke:#fff;}</style></defs><path class="a" d="M32.832,13.133H21.888V2.189A2.2,2.2,0,0,0,19.7,0H15.322a2.2,2.2,0,0,0-2.189,2.189V13.133H2.189A2.2,2.2,0,0,0,0,15.322V19.7a2.2,2.2,0,0,0,2.189,2.189H13.133V32.832a2.2,2.2,0,0,0,2.189,2.189H19.7a2.2,2.2,0,0,0,2.189-2.189V21.888H32.832A2.2,2.2,0,0,0,35.021,19.7V15.322A2.2,2.2,0,0,0,32.832,13.133Z" transform="translate(0.5 0.5)"/></svg>